# xmcd
#
# Track frame offsets:
#	150
#	18916
#	37507
#	60539
#	70079
#	94877
#	112341
#	134253
#	156416
#	173212
#	191591
#
# Disc length: 2697 seconds
#
# Revision: 8
# Processed by: cddbd v1.5.2PL0 Copyright (c) Steve Scherf et al.
# Submitted via: audiograbber 1.83.01
#
DISCID=900a870b
DTITLE=אריאל הורוביץ - יאללה ביי
DYEAR=1998
DGENRE=Pop
TTITLE0=סיגל נחמיאס
TTITLE1=יאללה ביי
TTITLE2=תוצאות הבדיקה
TTITLE3=גשם
TTITLE4=זה בשבילך
TTITLE5=הכל כתוב
TTITLE6=איש הכפר
TTITLE7=אי ודאות
TTITLE8=שירו של משה
TTITLE9=האהבות הישנות
TTITLE10=היי איש
EXTD=ISRAEL MUSIC YEAR: 1998
EXTT0=
EXTT1=
EXTT2=
EXTT3=
EXTT4=
EXTT5=
EXTT6=
EXTT7=
EXTT8=
EXTT9=
EXTT10=
PLAYORDER=
